=========== Heaven & Glance- Sexy Girl - HD 1080p ================================

Format                           : MPEG-4
Format profile                   : Base Media / Version 2
Codec ID                         : mp42
File size                        : 86.4 MiB
Duration                         : 3mn 20s
Overall bit rate                 : 3 616 Kbps
Encoded date                     : UTC 2010-06-17 09:30:04
Tagged date                      : UTC 2010-06-17 09:30:04
gsst                             : 0
gstd                             : 200921
gssd                             : BCA9FD845HH1308777476254365
gshh                             : o-o.preferred.mtnl-

Video
ID                               : 2
Format                           : AVC
Format/Info                      : Advanced Video Codec
Format profile                   : High@L4.0
Format settings, CABAC           : Yes
Format settings, ReFrames        : 1 frame
Format settings, GOP             : M=1, N=17
Codec ID                         : avc1
Codec ID/Info                    : Advanced Video Coding
Duration                         : 3mn 20s

Bit rate mode                    : Variable
Bit rate                         : 3 487 Kbps
Maximum bit rate                 : 6 477 Kbps
Width                            : 1 920 pixels
Height                           : 1 080 pixels
Display aspect ratio             : 16:9
Frame rate mode                  : Constant
Frame rate                       : 25.000 fps
Color space                      : YUV
Chroma subsampling               : 4:2:0
Bit depth                        : 8 bits
Scan type                        : Progressive
Bits/(Pixel*Frame)               : 0.067
Stream size                      : 83.3 MiB (96%)
Title                            : (C) 2007 Google Inc. v08.13.2007.
Encoded date                     : UTC 2010-06-17 09:30:04
Tagged date                      : UTC 2010-06-17 09:30:05

Audio
ID                               : 1
Format                           : AAC
Format/Info                      : Advanced Audio Codec
Format version                   : Version 4
Format profile                   : LC
Format settings, SBR             : No
Codec ID                         : 40
Duration                         : 3mn 20s
Bit rate mode                    : Variable
Bit rate                         : 126 Kbps
Maximum bit rate                 : 172 Kbps
Channel(s)                       : 2 channels
Channel positions                : Front: L R
Sampling rate                    : 44.1 KHz
Stream size                      : 3.01 MiB (3%)
Title                            : (C) 2007 Google Inc. v08.13.2007.
Encoded date                     : UTC 2010-06-17 09:30:04
Tagged date                      : UTC 2010-06-17 09:30:05

===========================SCREEN SHOTS ==========================================

                      http://bayimg.com/paIEDAadM
                      http://bayimg.com/PAIeiaAdM  
                      http://bayimg.com/paiEKaAdm
                      http://bayimg.com/pAIeLaADm

============================ FOLLOW ME ON TWEETER AND FACEBOOK =================

        SEARCH FOR   haunting_summer

  http: // www. facebook. com/ pages/ HaUnTiNgSuMMeR-ToRrEnTs/ 192812490771363

=================================================================================

--------------- PLZ RATE +/- THE QUALITY N COMMENT IF POSSIBLE -----------------
=================================================================================